<svg version="1.1" xmlns="http://www.w3.org/2000/svg" xmlns:xlink="http://www.w3.org/1999/xlink" width="1240" height="556" viewBox="0 0 1240 556"><defs/><g transform="scale(1,1)"><g transform="scale(1,1)"><rect fill="rgb(0,0,0)" stroke="none" x="0" y="0" width="1240" height="556" fill-opacity="1"/></g><g transform="scale(1.3,1.3) translate(275.55555555555554,61.77777777777778)"><g><path fill="none" stroke="rgb(0,255,43)" paint-order="fill stroke markers" d=" M -31.5 -21 L 31.5 -21 L 31.5 21 L -31.5 21 L -31.5 -21 Z" stroke-opacity="1" stroke-linecap="round" stroke-miterlimit="10" stroke-width="0.5"/><g><text fill="rgb(255,255,255)" stroke="none" font-family="IBM Plex Mono" font-size="10px" font-style="normal" font-weight="normal" text-decoration="normal" x="0" y="0" text-anchor="middle" dominant-baseline="central" fill-opacity="1">BC</text></g></g><g><path fill="none" stroke="rgb(0,255,43)" paint-order="fill stroke markers" d=" M -31.5 21 L 31.5 21 L 31.5 63 L -31.5 63 L -31.5 21 Z" stroke-opacity="1" stroke-linecap="round" stroke-miterlimit="10" stroke-width="0.5"/><g><text fill="rgb(255,255,255)" stroke="none" font-family="IBM Plex Mono" font-size="10px" font-style="normal" font-weight="normal" text-decoration="normal" x="0" y="42" text-anchor="middle" dominant-baseline="central" fill-opacity="1">BD</text></g></g><g><path fill="none" stroke="rgb(0,255,43)" paint-order="fill stroke markers" d=" M -31.5 63 L 31.5 63 L 31.5 105 L -31.5 105 L -31.5 63 Z" stroke-opacity="1" stroke-linecap="round" stroke-miterlimit="10" stroke-width="0.5"/><g><text fill="rgb(255,255,255)" stroke="none" font-family="IBM Plex Mono" font-size="10px" font-style="normal" font-weight="normal" text-decoration="normal" x="0" y="84" text-anchor="middle" dominant-baseline="central" fill-opacity="1">BE</text></g></g><g><path fill="none" stroke="rgb(0,255,43)" paint-order="fill stroke markers" d=" M -31.5 105 L 31.5 105 L 31.5 147 L -31.5 147 L -31.5 105 Z" stroke-opacity="1" stroke-linecap="round" stroke-miterlimit="10" stroke-width="0.5"/><g><text fill="rgb(255,255,255)" stroke="none" font-family="IBM Plex Mono" font-size="10px" font-style="normal" font-weight="normal" text-decoration="normal" x="0" y="126" text-anchor="middle" dominant-baseline="central" fill-opacity="1">BF</text></g></g><g><path fill="none" stroke="rgb(0,255,43)" paint-order="fill stroke markers" d=" M -31.5 147 L 31.5 147 L 31.5 189 L -31.5 189 L -31.5 147 Z" stroke-opacity="1" stroke-linecap="round" stroke-miterlimit="10" stroke-width="0.5"/><g><text fill="rgb(255,255,255)" stroke="none" font-family="IBM Plex Mono" font-size="10px" font-style="normal" font-weight="normal" text-decoration="normal" x="0" y="168" text-anchor="middle" dominant-baseline="central" fill-opacity="1">BG</text></g></g><g><path fill="none" stroke="rgb(0,255,43)" paint-order="fill stroke markers" d=" M -31.5 189 L 31.5 189 L 31.5 231 L -31.5 231 L -31.5 189 Z" stroke-opacity="1" stroke-linecap="round" stroke-miterlimit="10" stroke-width="0.5"/><g><text fill="rgb(255,255,255)" stroke="none" font-family="IBM Plex Mono" font-size="10px" font-style="normal" font-weight="normal" text-decoration="normal" x="0" y="210" text-anchor="middle" dominant-baseline="central" fill-opacity="1">BH</text></g></g><g><path fill="none" stroke="rgb(0,255,43)" paint-order="fill stroke markers" d=" M -31.5 231 L 31.5 231 L 31.5 273 L -31.5 273 L -31.5 231 Z" stroke-opacity="1" stroke-linecap="round" stroke-miterlimit="10" stroke-width="0.5"/><g><text fill="rgb(255,255,255)" stroke="none" font-family="IBM Plex Mono" font-size="10px" font-style="normal" font-weight="normal" text-decoration="normal" x="0" y="252" text-anchor="middle" dominant-baseline="central" fill-opacity="1">BI</text></g></g><g><path fill="none" stroke="rgb(0,255,43)" paint-order="fill stroke markers" d=" M -31.5 273 L 31.5 273 L 31.5 315 L -31.5 315 L -31.5 273 Z" stroke-opacity="1" stroke-linecap="round" stroke-miterlimit="10" stroke-width="0.5"/><g><text fill="rgb(255,255,255)" stroke="none" font-family="IBM Plex Mono" font-size="10px" font-style="normal" font-weight="normal" text-decoration="normal" x="0" y="294" text-anchor="middle" dominant-baseline="central" fill-opacity="1">BK</text></g></g><g><path fill="none" stroke="rgb(0,255,43)" paint-order="fill stroke markers" d=" M 31.5 -21 L 94.5 -21 L 94.5 21 L 31.5 21 L 31.5 -21 Z" stroke-opacity="1" stroke-linecap="round" stroke-miterlimit="10" stroke-width="0.5"/><g><text fill="rgb(255,255,255)" stroke="none" font-family="IBM Plex Mono" font-size="10px" font-style="normal" font-weight="normal" text-decoration="normal" x="63" y="0" text-anchor="middle" dominant-baseline="central" fill-opacity="1">CD</text></g></g><g><path fill="none" stroke="rgb(0,255,43)" paint-order="fill stroke markers" d=" M 31.5 21 L 94.5 21 L 94.5 63 L 31.5 63 L 31.5 21 Z" stroke-opacity="1" stroke-linecap="round" stroke-miterlimit="10" stroke-width="0.5"/><g><text fill="rgb(255,255,255)" stroke="none" font-family="IBM Plex Mono" font-size="10px" font-style="normal" font-weight="normal" text-decoration="normal" x="63" y="42" text-anchor="middle" dominant-baseline="central" fill-opacity="1">CE</text></g></g><g><path fill="none" stroke="rgb(0,255,43)" paint-order="fill stroke markers" d=" M 31.5 63 L 94.5 63 L 94.5 105 L 31.5 105 L 31.5 63 Z" stroke-opacity="1" stroke-linecap="round" stroke-miterlimit="10" stroke-width="0.5"/><g><text fill="rgb(255,255,255)" stroke="none" font-family="IBM Plex Mono" font-size="10px" font-style="normal" font-weight="normal" text-decoration="normal" x="63" y="84" text-anchor="middle" dominant-baseline="central" fill-opacity="1">CF</text></g></g><g><path fill="none" stroke="rgb(0,255,43)" paint-order="fill stroke markers" d=" M 31.5 105 L 94.5 105 L 94.5 147 L 31.5 147 L 31.5 105 Z" stroke-opacity="1" stroke-linecap="round" stroke-miterlimit="10" stroke-width="0.5"/><g><text fill="rgb(255,255,255)" stroke="none" font-family="IBM Plex Mono" font-size="10px" font-style="normal" font-weight="normal" text-decoration="normal" x="63" y="126" text-anchor="middle" dominant-baseline="central" fill-opacity="1">CG</text></g></g><g><path fill="none" stroke="rgb(0,255,43)" paint-order="fill stroke markers" d=" M 31.5 147 L 94.5 147 L 94.5 189 L 31.5 189 L 31.5 147 Z" stroke-opacity="1" stroke-linecap="round" stroke-miterlimit="10" stroke-width="0.5"/><g><text fill="rgb(255,255,255)" stroke="none" font-family="IBM Plex Mono" font-size="10px" font-style="normal" font-weight="normal" text-decoration="normal" x="63" y="168" text-anchor="middle" dominant-baseline="central" fill-opacity="1">CH</text></g></g><g><path fill="none" stroke="rgb(0,255,43)" paint-order="fill stroke markers" d=" M 31.5 189 L 94.5 189 L 94.5 231 L 31.5 231 L 31.5 189 Z" stroke-opacity="1" stroke-linecap="round" stroke-miterlimit="10" stroke-width="0.5"/><g><text fill="rgb(255,255,255)" stroke="none" font-family="IBM Plex Mono" font-size="10px" font-style="normal" font-weight="normal" text-decoration="normal" x="63" y="210" text-anchor="middle" dominant-baseline="central" fill-opacity="1">CI</text></g></g><g><path fill="none" stroke="rgb(0,255,43)" paint-order="fill stroke markers" d=" M 31.5 231 L 94.5 231 L 94.5 273 L 31.5 273 L 31.5 231 Z" stroke-opacity="1" stroke-linecap="round" stroke-miterlimit="10" stroke-width="0.5"/><g><text fill="rgb(255,255,255)" stroke="none" font-family="IBM Plex Mono" font-size="10px" font-style="normal" font-weight="normal" text-decoration="normal" x="63" y="252" text-anchor="middle" dominant-baseline="central" fill-opacity="1">CK</text></g></g><g><path fill="none" stroke="rgb(0,255,43)" paint-order="fill stroke markers" d=" M 94.5 -21 L 157.5 -21 L 157.5 21 L 94.5 21 L 94.5 -21 Z" stroke-opacity="1" stroke-linecap="round" stroke-miterlimit="10" stroke-width="0.5"/><g><text fill="rgb(255,255,255)" stroke="none" font-family="IBM Plex Mono" font-size="10px" font-style="normal" font-weight="normal" text-decoration="normal" x="126" y="0" text-anchor="middle" dominant-baseline="central" fill-opacity="1">DE</text></g></g><g><path fill="none" stroke="rgb(0,255,43)" paint-order="fill stroke markers" d=" M 94.5 21 L 157.5 21 L 157.5 63 L 94.5 63 L 94.5 21 Z" stroke-opacity="1" stroke-linecap="round" stroke-miterlimit="10" stroke-width="0.5"/><g><text fill="rgb(255,255,255)" stroke="none" font-family="IBM Plex Mono" font-size="10px" font-style="normal" font-weight="normal" text-decoration="normal" x="126" y="42" text-anchor="middle" dominant-baseline="central" fill-opacity="1">DF</text></g></g><g><path fill="none" stroke="rgb(0,255,43)" paint-order="fill stroke markers" d=" M 94.5 63 L 157.5 63 L 157.5 105 L 94.5 105 L 94.5 63 Z" stroke-opacity="1" stroke-linecap="round" stroke-miterlimit="10" stroke-width="0.5"/><g><text fill="rgb(255,255,255)" stroke="none" font-family="IBM Plex Mono" font-size="10px" font-style="normal" font-weight="normal" text-decoration="normal" x="126" y="84" text-anchor="middle" dominant-baseline="central" fill-opacity="1">DG</text></g></g><g><path fill="none" stroke="rgb(0,255,43)" paint-order="fill stroke markers" d=" M 94.5 105 L 157.5 105 L 157.5 147 L 94.5 147 L 94.5 105 Z" stroke-opacity="1" stroke-linecap="round" stroke-miterlimit="10" stroke-width="0.5"/><g><text fill="rgb(255,255,255)" stroke="none" font-family="IBM Plex Mono" font-size="10px" font-style="normal" font-weight="normal" text-decoration="normal" x="126" y="126" text-anchor="middle" dominant-baseline="central" fill-opacity="1">DH</text></g></g><g><path fill="none" stroke="rgb(0,255,43)" paint-order="fill stroke markers" d=" M 94.5 147 L 157.5 147 L 157.5 189 L 94.5 189 L 94.5 147 Z" stroke-opacity="1" stroke-linecap="round" stroke-miterlimit="10" stroke-width="0.5"/><g><text fill="rgb(255,255,255)" stroke="none" font-family="IBM Plex Mono" font-size="10px" font-style="normal" font-weight="normal" text-decoration="normal" x="126" y="168" text-anchor="middle" dominant-baseline="central" fill-opacity="1">DI</text></g></g><g><path fill="none" stroke="rgb(0,255,43)" paint-order="fill stroke markers" d=" M 94.5 189 L 157.5 189 L 157.5 231 L 94.5 231 L 94.5 189 Z" stroke-opacity="1" stroke-linecap="round" stroke-miterlimit="10" stroke-width="0.5"/><g><text fill="rgb(255,255,255)" stroke="none" font-family="IBM Plex Mono" font-size="10px" font-style="normal" font-weight="normal" text-decoration="normal" x="126" y="210" text-anchor="middle" dominant-baseline="central" fill-opacity="1">DK</text></g></g><g><path fill="none" stroke="rgb(0,255,43)" paint-order="fill stroke markers" d=" M 157.5 -21 L 220.5 -21 L 220.5 21 L 157.5 21 L 157.5 -21 Z" stroke-opacity="1" stroke-linecap="round" stroke-miterlimit="10" stroke-width="0.5"/><g><text fill="rgb(255,255,255)" stroke="none" font-family="IBM Plex Mono" font-size="10px" font-style="normal" font-weight="normal" text-decoration="normal" x="189" y="0" text-anchor="middle" dominant-baseline="central" fill-opacity="1">EF</text></g></g><g><path fill="none" stroke="rgb(0,255,43)" paint-order="fill stroke markers" d=" M 157.5 21 L 220.5 21 L 220.5 63 L 157.5 63 L 157.5 21 Z" stroke-opacity="1" stroke-linecap="round" stroke-miterlimit="10" stroke-width="0.5"/><g><text fill="rgb(255,255,255)" stroke="none" font-family="IBM Plex Mono" font-size="10px" font-style="normal" font-weight="normal" text-decoration="normal" x="189" y="42" text-anchor="middle" dominant-baseline="central" fill-opacity="1">EG</text></g></g><g><path fill="none" stroke="rgb(0,255,43)" paint-order="fill stroke markers" d=" M 157.5 63 L 220.5 63 L 220.5 105 L 157.5 105 L 157.5 63 Z" stroke-opacity="1" stroke-linecap="round" stroke-miterlimit="10" stroke-width="0.5"/><g><text fill="rgb(255,255,255)" stroke="none" font-family="IBM Plex Mono" font-size="10px" font-style="normal" font-weight="normal" text-decoration="normal" x="189" y="84" text-anchor="middle" dominant-baseline="central" fill-opacity="1">EH</text></g></g><g><path fill="none" stroke="rgb(0,255,43)" paint-order="fill stroke markers" d=" M 157.5 105 L 220.5 105 L 220.5 147 L 157.5 147 L 157.5 105 Z" stroke-opacity="1" stroke-linecap="round" stroke-miterlimit="10" stroke-width="0.5"/><g><text fill="rgb(255,255,255)" stroke="none" font-family="IBM Plex Mono" font-size="10px" font-style="normal" font-weight="normal" text-decoration="normal" x="189" y="126" text-anchor="middle" dominant-baseline="central" fill-opacity="1">EI</text></g></g><g><path fill="none" stroke="rgb(0,255,43)" paint-order="fill stroke markers" d=" M 157.5 147 L 220.5 147 L 220.5 189 L 157.5 189 L 157.5 147 Z" stroke-opacity="1" stroke-linecap="round" stroke-miterlimit="10" stroke-width="0.5"/><g><text fill="rgb(255,255,255)" stroke="none" font-family="IBM Plex Mono" font-size="10px" font-style="normal" font-weight="normal" text-decoration="normal" x="189" y="168" text-anchor="middle" dominant-baseline="central" fill-opacity="1">EK</text></g></g><g><path fill="none" stroke="rgb(0,255,43)" paint-order="fill stroke markers" d=" M 220.5 -21 L 283.5 -21 L 283.5 21 L 220.5 21 L 220.5 -21 Z" stroke-opacity="1" stroke-linecap="round" stroke-miterlimit="10" stroke-width="0.5"/><g><text fill="rgb(255,255,255)" stroke="none" font-family="IBM Plex Mono" font-size="10px" font-style="normal" font-weight="normal" text-decoration="normal" x="252" y="0" text-anchor="middle" dominant-baseline="central" fill-opacity="1">FG</text></g></g><g><path fill="none" stroke="rgb(0,255,43)" paint-order="fill stroke markers" d=" M 220.5 21 L 283.5 21 L 283.5 63 L 220.5 63 L 220.5 21 Z" stroke-opacity="1" stroke-linecap="round" stroke-miterlimit="10" stroke-width="0.5"/><g><text fill="rgb(255,255,255)" stroke="none" font-family="IBM Plex Mono" font-size="10px" font-style="normal" font-weight="normal" text-decoration="normal" x="252" y="42" text-anchor="middle" dominant-baseline="central" fill-opacity="1">FH</text></g></g><g><path fill="none" stroke="rgb(0,255,43)" paint-order="fill stroke markers" d=" M 220.5 63 L 283.5 63 L 283.5 105 L 220.5 105 L 220.5 63 Z" stroke-opacity="1" stroke-linecap="round" stroke-miterlimit="10" stroke-width="0.5"/><g><text fill="rgb(255,255,255)" stroke="none" font-family="IBM Plex Mono" font-size="10px" font-style="normal" font-weight="normal" text-decoration="normal" x="252" y="84" text-anchor="middle" dominant-baseline="central" fill-opacity="1">FI</text></g></g><g><path fill="none" stroke="rgb(0,255,43)" paint-order="fill stroke markers" d=" M 220.5 105 L 283.5 105 L 283.5 147 L 220.5 147 L 220.5 105 Z" stroke-opacity="1" stroke-linecap="round" stroke-miterlimit="10" stroke-width="0.5"/><g><text fill="rgb(255,255,255)" stroke="none" font-family="IBM Plex Mono" font-size="10px" font-style="normal" font-weight="normal" text-decoration="normal" x="252" y="126" text-anchor="middle" dominant-baseline="central" fill-opacity="1">FK</text></g></g><g><path fill="none" stroke="rgb(0,255,43)" paint-order="fill stroke markers" d=" M 283.5 -21 L 346.5 -21 L 346.5 21 L 283.5 21 L 283.5 -21 Z" stroke-opacity="1" stroke-linecap="round" stroke-miterlimit="10" stroke-width="0.5"/><g><text fill="rgb(255,255,255)" stroke="none" font-family="IBM Plex Mono" font-size="10px" font-style="normal" font-weight="normal" text-decoration="normal" x="315" y="0" text-anchor="middle" dominant-baseline="central" fill-opacity="1">GH</text></g></g><g><path fill="none" stroke="rgb(0,255,43)" paint-order="fill stroke markers" d=" M 283.5 21 L 346.5 21 L 346.5 63 L 283.5 63 L 283.5 21 Z" stroke-opacity="1" stroke-linecap="round" stroke-miterlimit="10" stroke-width="0.5"/><g><text fill="rgb(255,255,255)" stroke="none" font-family="IBM Plex Mono" font-size="10px" font-style="normal" font-weight="normal" text-decoration="normal" x="315" y="42" text-anchor="middle" dominant-baseline="central" fill-opacity="1">GI</text></g></g><g><path fill="none" stroke="rgb(0,255,43)" paint-order="fill stroke markers" d=" M 283.5 63 L 346.5 63 L 346.5 105 L 283.5 105 L 283.5 63 Z" stroke-opacity="1" stroke-linecap="round" stroke-miterlimit="10" stroke-width="0.5"/><g><text fill="rgb(255,255,255)" stroke="none" font-family="IBM Plex Mono" font-size="10px" font-style="normal" font-weight="normal" text-decoration="normal" x="315" y="84" text-anchor="middle" dominant-baseline="central" fill-opacity="1">GK</text></g></g><g><path fill="none" stroke="rgb(0,255,43)" paint-order="fill stroke markers" d=" M 346.5 -21 L 409.5 -21 L 409.5 21 L 346.5 21 L 346.5 -21 Z" stroke-opacity="1" stroke-linecap="round" stroke-miterlimit="10" stroke-width="0.5"/><g><text fill="rgb(255,255,255)" stroke="none" font-family="IBM Plex Mono" font-size="10px" font-style="normal" font-weight="normal" text-decoration="normal" x="378" y="0" text-anchor="middle" dominant-baseline="central" fill-opacity="1">HI</text></g></g><g><path fill="none" stroke="rgb(0,255,43)" paint-order="fill stroke markers" d=" M 346.5 21 L 409.5 21 L 409.5 63 L 346.5 63 L 346.5 21 Z" stroke-opacity="1" stroke-linecap="round" stroke-miterlimit="10" stroke-width="0.5"/><g><text fill="rgb(255,255,255)" stroke="none" font-family="IBM Plex Mono" font-size="10px" font-style="normal" font-weight="normal" text-decoration="normal" x="378" y="42" text-anchor="middle" dominant-baseline="central" fill-opacity="1">HK</text></g></g><g><path fill="none" stroke="rgb(0,255,43)" paint-order="fill stroke markers" d=" M 409.5 -21 L 472.5 -21 L 472.5 21 L 409.5 21 L 409.5 -21 Z" stroke-opacity="1" stroke-linecap="round" stroke-miterlimit="10" stroke-width="0.5"/><g><text fill="rgb(255,255,255)" stroke="none" font-family="IBM Plex Mono" font-size="10px" font-style="normal" font-weight="normal" text-decoration="normal" x="441" y="0" text-anchor="middle" dominant-baseline="central" fill-opacity="1">IK</text></g></g></g></g></svg>